<svg width="24" height="24" viewBox="0 0 24 24" fill="none" xmlns="http://www.w3.org/2000/svg">
<path d="M15.9999 21H7.99992C7.73471 21 7.48035 20.8946 7.29282 20.7071C7.10528 20.5196 6.99992 20.2652 6.99992 20V12.07L5.69992 13.07C5.60741 13.1627 5.49752 13.2363 5.37655 13.2864C5.25558 13.3366 5.12589 13.3624 4.99492 13.3624C4.86396 13.3624 4.73427 13.3366 4.6133 13.2864C4.49233 13.2363 4.38244 13.1627 4.28992 13.07L1.45992 10.29C1.36722 10.1975 1.29367 10.0876 1.24349 9.96662C1.19331 9.84565 1.16748 9.71597 1.16748 9.585C1.16748 9.45403 1.19331 9.32435 1.24349 9.20338C1.29367 9.0824 1.36722 8.97251 1.45992 8.88L7.33992 3H8.99992C8.99992 4.1 10.3399 5 11.9999 5C13.6599 5 14.9999 4.1 14.9999 3H16.6599L22.5399 8.88C22.9299 9.27 22.9299 9.9 22.5399 10.29L19.7099 13.12C19.3199 13.5 18.6899 13.5 18.2999 13.12L16.9999 12.12V20C16.9999 20.2652 16.8946 20.5196 16.707 20.7071C16.5195 20.8946 16.2651 21 15.9999 21Z" fill="black"/>
</svg>
