<svg width="24" height="24" viewBox="0 0 24 24" fill="none" xmlns="http://www.w3.org/2000/svg">
<path fill-rule="evenodd" clip-rule="evenodd" d="M4.8001 4.80002C4.8001 4.1635 5.05295 3.55306 5.50304 3.10297C5.95313 2.65288 6.56358 2.40002 7.2001 2.40002H16.8001C17.4366 2.40002 18.0471 2.65288 18.4972 3.10297C18.9472 3.55306 19.2001 4.1635 19.2001 4.80002V19.2C19.5184 19.2 19.8236 19.3265 20.0486 19.5515C20.2737 19.7765 20.4001 20.0818 20.4001 20.4C20.4001 20.7183 20.2737 21.0235 20.0486 21.2486C19.8236 21.4736 19.5184 21.6 19.2001 21.6H15.6001C15.2818 21.6 14.9766 21.4736 14.7516 21.2486C14.5265 21.0235 14.4001 20.7183 14.4001 20.4V18C14.4001 17.6818 14.2737 17.3765 14.0486 17.1515C13.8236 16.9265 13.5184 16.8 13.2001 16.8H10.8001C10.4818 16.8 10.1766 16.9265 9.95157 17.1515C9.72653 17.3765 9.6001 17.6818 9.6001 18V20.4C9.6001 20.7183 9.47367 21.0235 9.24863 21.2486C9.02358 21.4736 8.71836 21.6 8.4001 21.6H4.8001C4.48184 21.6 4.17661 21.4736 3.95157 21.2486C3.72653 21.0235 3.6001 20.7183 3.6001 20.4C3.6001 20.0818 3.72653 19.7765 3.95157 19.5515C4.17661 19.3265 4.48184 19.2 4.8001 19.2V4.80002ZM8.4001 6.00002H10.8001V8.40002H8.4001V6.00002ZM10.8001 10.8H8.4001V13.2H10.8001V10.8ZM13.2001 6.00002H15.6001V8.40002H13.2001V6.00002ZM15.6001 10.8H13.2001V13.2H15.6001V10.8Z" fill="black"/>
</svg>
