<svg width="24" height="24" viewBox="0 0 24 24" fill="none" xmlns="http://www.w3.org/2000/svg">
<path fill-rule="evenodd" clip-rule="evenodd" d="M23.1829 4.14185C23.4465 3.65098 22.8487 3.79985 22.8487 3.79985C22.8487 3.79985 18.8636 7.62523 18.3097 7.15648C17.7559 6.68773 22.2116 3.02135 21.6844 2.33623C21.1965 1.6976 17.2819 6.25685 16.8116 5.69998C16.3459 5.14423 20.1637 1.15385 20.1637 1.15385C20.1637 1.15385 20.3089 0.553101 19.8217 0.816351C13.8191 4.04435 13.0545 7.05373 13.0545 7.05373C13.0545 7.05373 12.8479 7.63985 13.2964 8.09285C13.3402 8.13223 2.34486 19.0654 0.872988 20.5414C0.156738 21.2569 2.78474 23.8417 3.49649 23.1262C4.96874 21.6502 15.8805 10.6376 15.9199 10.6785C16.3725 11.1304 16.9571 10.923 16.9571 10.923C16.9571 10.923 19.9616 10.1561 23.1829 4.14185" fill="black"/>
<path fill-rule="evenodd" clip-rule="evenodd" d="M12.0103 15.1901C14.9364 18.1226 19.8695 23.0648 19.8695 23.0648C19.8695 23.0648 22.0228 22.3601 22.3261 20.5414L14.498 12.6979C13.668 13.5279 12.8387 14.3586 12.0103 15.1901" fill="black"/>
<path fill-rule="evenodd" clip-rule="evenodd" d="M8.15978 12.6484C9.20938 11.5996 10.2578 10.5496 11.3049 9.49836L2.7969 0.974232C2.7969 0.974232 2.64315 0.812982 2.30453 1.15311C1.63215 1.82323 0.331277 6.09298 5.8464 11.6164C6.72053 12.4924 7.48103 12.6139 8.15978 12.6484" fill="black"/>
</svg>
