<svg width="24" height="24" viewBox="0 0 24 24" fill="none" xmlns="http://www.w3.org/2000/svg">
<g clip-path="url(#clip0)">
<path d="M0.152171 3.335C-0.0507158 4.09834 -0.0493913 4.9016 0.156012 5.66427C0.361415 6.42694 0.76368 7.12221 1.32249 7.68041C1.88129 8.23861 2.57701 8.64012 3.3399 8.8447C4.10279 9.04927 4.90605 9.04972 5.66917 8.846L15.1807 18.224C14.983 18.8955 14.9446 19.6039 15.0684 20.2929C15.1922 20.9819 15.4749 21.6325 15.8941 22.1932C16.3132 22.7538 16.8573 23.2091 17.4831 23.5228C18.1089 23.8365 18.7992 24.0001 19.4992 24.0005C20.1441 23.9996 20.7813 23.8601 21.3675 23.5914C21.9538 23.3228 22.4755 22.9312 22.8973 22.4433C23.319 21.9555 23.631 21.3826 23.812 20.7636C23.993 20.1446 24.0389 19.494 23.9465 18.8557C23.8541 18.2175 23.6255 17.6065 23.2764 17.0643C22.9273 16.5221 22.4657 16.0612 21.9229 15.713C21.3801 15.3647 20.7688 15.1372 20.1303 15.0459C19.4919 14.9545 18.8414 15.0015 18.2227 15.1835L8.84467 5.672C9.04938 4.90859 9.04968 4.10476 8.84555 3.3412C8.64141 2.57763 8.24003 1.88119 7.68168 1.32177C7.12333 0.762357 6.42765 0.359647 5.66447 0.154062C4.9013 -0.0515232 4.09747 -0.052751 3.33367 0.150502L6.54517 3.3635L5.99917 6.0005L3.36367 6.5465L0.152171 3.335ZM20.2072 16.8635L20.9992 16.9025L21.4297 17.57L22.0972 18.0005L22.1362 18.794L22.4992 19.5005L22.1362 20.207L22.0972 21.0005L21.4297 21.431L20.9992 22.0985L20.2057 22.1375L19.4992 22.5005L18.7927 22.1375L17.9992 22.0985L17.5687 21.431L16.9012 21.0005L16.8622 20.207L16.4992 19.5005L16.8622 18.794L16.9012 18.0005L17.5687 17.57L17.9992 16.9025L18.7927 16.8635L19.4992 16.5005L20.2057 16.8635H20.2072Z" fill="black"/>
</g>
<defs>
<clipPath id="clip0">
<rect width="24" height="24" fill="white"/>
</clipPath>
</defs>
</svg>
