<svg width="16" height="16" viewBox="0 0 16 16" fill="none" xmlns="http://www.w3.org/2000/svg">
<path d="M1.29279 1.29302C1.48031 1.10555 1.73462 1.00023 1.99979 1.00023C2.26495 1.00023 2.51926 1.10555 2.70679 1.29302L7.99979 6.58602L13.2928 1.29302C13.385 1.19751 13.4954 1.12133 13.6174 1.06892C13.7394 1.01651 13.8706 0.988924 14.0034 0.98777C14.1362 0.986616 14.2678 1.01192 14.3907 1.0622C14.5136 1.11248 14.6253 1.18673 14.7192 1.28063C14.8131 1.37452 14.8873 1.48617 14.9376 1.60907C14.9879 1.73196 15.0132 1.86364 15.012 1.99642C15.0109 2.1292 14.9833 2.26042 14.9309 2.38242C14.8785 2.50443 14.8023 2.61477 14.7068 2.70702L9.41379 8.00002L14.7068 13.293C14.8889 13.4816 14.9897 13.7342 14.9875 13.9964C14.9852 14.2586 14.88 14.5094 14.6946 14.6948C14.5092 14.8802 14.2584 14.9854 13.9962 14.9877C13.734 14.99 13.4814 14.8892 13.2928 14.707L7.99979 9.41402L2.70679 14.707C2.51818 14.8892 2.26558 14.99 2.00339 14.9877C1.74119 14.9854 1.49038 14.8802 1.30497 14.6948C1.11956 14.5094 1.01439 14.2586 1.01211 13.9964C1.00983 13.7342 1.11063 13.4816 1.29279 13.293L6.58579 8.00002L1.29279 2.70702C1.10532 2.51949 1 2.26518 1 2.00002C1 1.73486 1.10532 1.48055 1.29279 1.29302V1.29302Z" fill="white"/>
</svg>
