<svg width="24" height="25" viewBox="0 0 24 25" fill="none" xmlns="http://www.w3.org/2000/svg">
<path d="M23.9888 12.7339C23.9888 11.7097 23.9071 10.9622 23.7304 10.1871H12.2393V14.81H18.9843C18.8484 15.9589 18.114 17.689 16.4821 18.8516L16.4592 19.0064L20.0925 21.8712L20.3442 21.8968C22.656 19.7237 23.9888 16.5264 23.9888 12.7339" fill="#4285F4"/>
<path d="M12.2393 24.9141C15.5438 24.9141 18.3179 23.8068 20.3442 21.8967L16.4821 18.8516C15.4486 19.5852 14.0615 20.0973 12.2393 20.0973C9.00273 20.0973 6.25576 17.9243 5.27654 14.9208L5.13301 14.9332L1.35507 17.909L1.30566 18.0488C3.31829 22.1181 7.45238 24.9141 12.2393 24.9141Z" fill="#34A853"/>
<path d="M5.27634 14.9208C5.01797 14.1457 4.86844 13.3152 4.86844 12.457C4.86844 11.5988 5.01797 10.7684 5.26275 9.99331L5.25591 9.82823L1.43062 6.80457L1.30547 6.86516C0.475969 8.5538 0 10.4501 0 12.457C0 14.464 0.475969 16.3602 1.30547 18.0488L5.27634 14.9208" fill="#FBBC05"/>
<path d="M12.2393 4.8167C14.5374 4.8167 16.0877 5.8271 16.9717 6.67147L20.4258 3.23884C18.3044 1.23187 15.5438 0 12.2393 0C7.45238 0 3.31829 2.7959 1.30566 6.86517L5.26295 9.99332C6.25576 6.98979 9.00273 4.8167 12.2393 4.8167" fill="#EB4335"/>
</svg>
