<svg width="39" height="13" viewBox="0 0 39 13" fill="none" xmlns="http://www.w3.org/2000/svg">
<rect width="39" height="12.0441" rx="6.02206" fill="#525460"/>
<rect x="4.20581" y="2.67645" width="6.69118" height="6.69118" rx="3.34559" fill="#E8E8E8"/>
<g clip-path="url(#clip0)">
<path d="M6.93194 6.76547C6.79564 6.76547 6.68536 6.87699 6.68536 7.01329C6.68536 7.14959 6.79564 7.26111 6.93194 7.26111C7.06824 7.26111 7.17976 7.14959 7.17976 7.01329C7.17976 6.87699 7.06824 6.76547 6.93194 6.76547ZM6.18848 4.7829V5.03072H6.4363L6.88238 5.9712L6.7151 6.27478C6.69527 6.30948 6.68412 6.35037 6.68412 6.39374C6.68412 6.53004 6.79564 6.64156 6.93194 6.64156H8.41887V6.39374H6.98398C6.96664 6.39374 6.95301 6.38011 6.95301 6.36276L6.95672 6.34789L7.06824 6.14592H7.99138C8.08431 6.14592 8.16609 6.09511 8.20822 6.01829L8.65182 5.21411C8.66173 5.19676 8.66669 5.17569 8.66669 5.15463C8.66669 5.08648 8.61093 5.03072 8.54278 5.03072H6.71014L6.59366 4.7829H6.18848ZM8.17105 6.76547C8.03475 6.76547 7.92447 6.87699 7.92447 7.01329C7.92447 7.14959 8.03475 7.26111 8.17105 7.26111C8.30735 7.26111 8.41887 7.14959 8.41887 7.01329C8.41887 6.87699 8.30735 6.76547 8.17105 6.76547Z" fill="black"/>
</g>
<rect x="15.8677" y="4.58826" width="17.7794" height="2.86765" rx="1.43382" fill="#4CF872"/>
<defs>
<clipPath id="clip0">
<rect x="6.0647" y="4.5351" width="2.97386" height="2.97386" rx="1.48693" fill="white"/>
</clipPath>
</defs>
</svg>
