<svg width="40" height="14" viewBox="0 0 40 14" fill="none" xmlns="http://www.w3.org/2000/svg">
<rect width="40" height="13.7027" rx="6.85135" fill="#525460"/>
<rect x="3.10815" y="3.22418" width="7.2973" height="7.25437" rx="3.62719" fill="#E8E8E8"/>
<g clip-path="url(#clip0)">
<path d="M6.08132 7.65741C5.93267 7.65741 5.8124 7.77831 5.8124 7.92609C5.8124 8.07386 5.93267 8.19477 6.08132 8.19477C6.22997 8.19477 6.35159 8.07386 6.35159 7.92609C6.35159 7.77831 6.22997 7.65741 6.08132 7.65741ZM5.27051 5.50797V5.77665H5.54078L6.02726 6.79629L5.84483 7.12542C5.82321 7.16304 5.81105 7.20737 5.81105 7.25439C5.81105 7.40216 5.93267 7.52307 6.08132 7.52307H7.70294V7.25439H6.13808C6.11916 7.25439 6.10429 7.23961 6.10429 7.2208L6.10835 7.20468L6.22997 6.98571H7.23672C7.33808 6.98571 7.42726 6.93063 7.47321 6.84734L7.95699 5.97547C7.9678 5.95666 7.97321 5.93382 7.97321 5.91099C7.97321 5.8371 7.9124 5.77665 7.83808 5.77665H5.83943L5.7124 5.50797H5.27051ZM7.43267 7.65741C7.28402 7.65741 7.16375 7.77831 7.16375 7.92609C7.16375 8.07386 7.28402 8.19477 7.43267 8.19477C7.58132 8.19477 7.70294 8.07386 7.70294 7.92609C7.70294 7.77831 7.58132 7.65741 7.43267 7.65741Z" fill="black"/>
</g>
<rect x="15.4053" y="2.95547" width="20.8108" height="2.28378" rx="1.14189" fill="#4CF872"/>
<rect x="15.4053" y="7.65741" width="18.2432" height="1.47774" rx="0.738871" fill="#E2E2E2"/>
<rect x="15.4053" y="10.4785" width="12.8378" height="1.47774" rx="0.738871" fill="#E2E2E2"/>
<defs>
<clipPath id="clip0">
<rect x="5.13525" y="5.23929" width="3.24324" height="3.22417" rx="1.61208" fill="white"/>
</clipPath>
</defs>
</svg>
