<svg width="266" height="263" viewBox="0 0 266 263" fill="none" xmlns="http://www.w3.org/2000/svg">
<path d="M227.912 46.5966C230.67 44.1723 234.887 44.4338 237.17 47.3103C253.927 68.4198 263.91 94.1717 265.706 121.169C267.651 150.382 259.901 179.42 243.659 203.78C227.418 228.14 203.592 246.46 175.878 255.899C148.163 265.338 118.108 265.368 90.3747 255.984C62.6412 246.601 38.7788 228.329 22.4886 204.002C6.19831 179.674 -1.60949 150.651 0.27612 121.434C2.16173 92.2172 13.6354 64.4387 32.9176 42.4072C50.7368 22.0471 74.3044 7.64654 100.436 1.04801C103.997 0.148838 107.506 2.50112 108.226 6.10252V6.10252C108.946 9.70393 106.604 13.1889 103.048 14.1078C79.7867 20.1192 58.8166 33.0099 42.9258 51.1665C25.5718 70.9949 15.2456 95.9955 13.5485 122.291C11.8515 148.586 18.8785 174.707 33.5397 196.601C48.201 218.496 69.6771 234.941 94.6372 243.386C119.597 251.831 146.647 251.804 171.59 243.309C196.533 234.814 217.976 218.326 232.593 196.402C247.211 174.478 254.186 148.344 252.436 122.052C250.834 97.9766 241.998 75.0016 227.165 56.1013C224.898 53.2121 225.153 49.0209 227.912 46.5966V46.5966Z" fill="black"/>
</svg>
