<svg width="24" height="24" viewBox="0 0 24 24" fill="none" xmlns="http://www.w3.org/2000/svg">
<path d="M2.8135 15.4667L1.54683 20.9334C1.50314 21.1332 1.50464 21.3403 1.55122 21.5394C1.5978 21.7386 1.68829 21.9249 1.81608 22.0846C1.94386 22.2444 2.10572 22.3735 2.28982 22.4627C2.47392 22.5519 2.67561 22.5988 2.88017 22.6C2.97548 22.6096 3.07152 22.6096 3.16684 22.6L8.66684 21.3334L19.2268 10.8133L13.3335 4.93335L2.8135 15.4667Z" fill="black"/>
<path d="M22.5466 5.54667L18.6133 1.61333C18.3547 1.35604 18.0048 1.21161 17.64 1.21161C17.2752 1.21161 16.9252 1.35604 16.6666 1.61333L14.48 3.8L20.3666 9.68667L22.5533 7.5C22.6813 7.37139 22.7826 7.2188 22.8516 7.05098C22.9205 6.88315 22.9557 6.70338 22.955 6.52195C22.9544 6.34052 22.918 6.161 22.848 5.99365C22.7779 5.82629 22.6755 5.6744 22.5466 5.54667V5.54667Z" fill="black"/>
</svg>
