<svg width="24" height="27" viewBox="0 0 24 27" fill="none" xmlns="http://www.w3.org/2000/svg">
<g clip-path="url(#clip0)">
<path d="M1.71429 24.4686C1.71429 25.1399 1.9852 25.7837 2.46744 26.2584C2.94968 26.7331 3.60373 26.9998 4.28571 26.9998H19.7143C20.3963 26.9998 21.0503 26.7331 21.5326 26.2584C22.0148 25.7837 22.2857 25.1399 22.2857 24.4686V6.74983H1.71429V24.4686ZM16.2857 10.9686C16.2857 10.7448 16.376 10.5302 16.5368 10.372C16.6975 10.2137 16.9155 10.1248 17.1429 10.1248C17.3702 10.1248 17.5882 10.2137 17.7489 10.372C17.9097 10.5302 18 10.7448 18 10.9686V22.7811C18 23.0049 17.9097 23.2195 17.7489 23.3777C17.5882 23.5359 17.3702 23.6248 17.1429 23.6248C16.9155 23.6248 16.6975 23.5359 16.5368 23.3777C16.376 23.2195 16.2857 23.0049 16.2857 22.7811V10.9686ZM11.1429 10.9686C11.1429 10.7448 11.2332 10.5302 11.3939 10.372C11.5547 10.2137 11.7727 10.1248 12 10.1248C12.2273 10.1248 12.4453 10.2137 12.6061 10.372C12.7668 10.5302 12.8571 10.7448 12.8571 10.9686V22.7811C12.8571 23.0049 12.7668 23.2195 12.6061 23.3777C12.4453 23.5359 12.2273 23.6248 12 23.6248C11.7727 23.6248 11.5547 23.5359 11.3939 23.3777C11.2332 23.2195 11.1429 23.0049 11.1429 22.7811V10.9686ZM6 10.9686C6 10.7448 6.09031 10.5302 6.25105 10.372C6.4118 10.2137 6.62981 10.1248 6.85714 10.1248C7.08447 10.1248 7.30249 10.2137 7.46323 10.372C7.62398 10.5302 7.71429 10.7448 7.71429 10.9686V22.7811C7.71429 23.0049 7.62398 23.2195 7.46323 23.3777C7.30249 23.5359 7.08447 23.6248 6.85714 23.6248C6.62981 23.6248 6.4118 23.5359 6.25105 23.3777C6.09031 23.2195 6 23.0049 6 22.7811V10.9686ZM23.1429 1.68733H16.7143L16.2107 0.701193C16.104 0.490369 15.9397 0.313028 15.7362 0.189121C15.5328 0.0652137 15.2982 -0.000342783 15.0589 -0.00017386H8.93571C8.69699 -0.00107723 8.46283 0.0642349 8.26007 0.18828C8.05731 0.312324 7.89415 0.490084 7.78929 0.701193L7.28571 1.68733H0.857143C0.629814 1.68733 0.411797 1.77622 0.251051 1.93445C0.0903059 2.09269 0 2.3073 0 2.53108L0 4.21858C0 4.44235 0.0903059 4.65696 0.251051 4.8152C0.411797 4.97343 0.629814 5.06233 0.857143 5.06233H23.1429C23.3702 5.06233 23.5882 4.97343 23.7489 4.8152C23.9097 4.65696 24 4.44235 24 4.21858V2.53108C24 2.3073 23.9097 2.09269 23.7489 1.93445C23.5882 1.77622 23.3702 1.68733 23.1429 1.68733Z" fill="white"/>
</g>
<defs>
<clipPath id="clip0">
<rect width="24" height="27" fill="white"/>
</clipPath>
</defs>
</svg>
